<mxfile host="app.diagrams.net" modified="2023-05-10T06:19:28.517Z" agent="Mozilla/5.0 (Windows NT 10.0; Win64; x64) AppleWebKit/537.36 (KHTML, like Gecko) Chrome/112.0.0.0 Safari/537.36 Edg/112.0.1722.58" version="21.2.9" etag="nl9gKNVmpdq2_B_UhK-7" type="github">
  <diagram name="第 1 页" id="9CDZLtnK_lKL94_MYHNa">
    <mxGraphModel>
      <root>
        <mxCell id="0" />
        <mxCell id="1" parent="0" />
      </root>
    </mxGraphModel>
  </diagram>
</mxfile>
